<svg width="32" height="31" viewBox="0 0 32 31" fill="none" xmlns="http://www.w3.org/2000/svg">
    <path d="M0.0631834 16.2059L3.26636e-06 4.39521C-0.00091907 4.22685 0.193694 4.13189 0.326972 4.23511L4.13345 7.18078C4.1888 7.22391 4.22154 7.28948 4.222 7.35967L4.28564 19.2043C4.28656 19.3727 4.09195 19.4676 3.95867 19.3644L0.178475 16.4389C0.106072 16.3829 0.0636443 16.2972 0.0631834 16.2059Z" fill="#32964A"/>
    <path d="M16.6998 3.32998L5.46253 6.10316C5.19228 6.16968 4.90635 6.10957 4.68639 5.93936L1.14047 3.19511C1.00673 3.09189 1.05193 2.88085 1.2161 2.84048L12.6678 0.0131731C12.802 -0.0198573 12.9441 0.00996185 13.0529 0.0943728L16.7754 2.97536C16.9092 3.07858 16.864 3.28961 16.6998 3.32998Z" fill="#32964A"/>
    <path d="M16.6998 3.32998L5.43027 6.1114C5.18075 6.1729 4.91654 6.11736 4.71315 5.96001L1.14047 3.19511C1.00673 3.09189 1.05193 2.88085 1.2161 2.84048L12.6678 0.0131731C12.802 -0.0198573 12.9441 0.00996185 13.0529 0.0943728L16.7754 2.97536C16.9092 3.07858 16.864 3.28961 16.6998 3.32998Z" fill="#32964A"/>
    <path d="M30.5944 28.0698L19.168 30.8911C19.0181 30.9283 18.8595 30.8948 18.7373 30.8003L15.0354 27.9358C14.9017 27.8326 14.9469 27.6216 15.1111 27.5812L26.596 24.7456C26.709 24.7176 26.8289 24.7429 26.9207 24.814L30.67 27.7151C30.8037 27.8184 30.7586 28.0294 30.5944 28.0698Z" fill="#32964A"/>
    <path d="M30.5944 28.0698L19.168 30.8911C19.0181 30.9283 18.8595 30.8948 18.7373 30.8003L15.0354 27.9358C14.9017 27.8326 14.9469 27.6216 15.1111 27.5812L26.596 24.7456C26.709 24.7176 26.8289 24.7429 26.9207 24.814L30.67 27.7151C30.8037 27.8184 30.7586 28.0294 30.5944 28.0698Z" fill="#32964A"/>
    <path d="M27.588 23.5634L27.5239 11.706C27.523 11.5376 27.7176 11.4426 27.8509 11.5458L31.5347 14.3961C31.6684 14.4993 31.7468 14.6585 31.7477 14.8269L31.81 26.5151C31.8109 26.6834 31.6163 26.7784 31.483 26.6751L27.6664 23.7217C27.6175 23.6836 27.5885 23.6254 27.588 23.5634Z" fill="#32964A"/>
    <path d="M14.0467 18.969C14.0453 18.6634 13.794 18.4148 13.4873 18.4148C13.4421 18.4148 13.3965 18.4203 13.3522 18.4313L5.85128 20.2829C5.72404 20.3145 5.60045 20.2186 5.59996 20.0883L5.57923 16.2614C5.57828 16.1306 5.66777 16.0159 5.7955 15.9848L13.1613 14.1667L13.165 14.1694L13.4154 14.1011C13.7493 14.0103 13.9794 13.707 13.9766 13.363L13.9757 13.2634L13.9743 13.1777L13.9333 5.57557C13.9328 5.44532 14.0214 5.332 14.1482 5.30078L17.8837 4.37915C18.0109 4.3475 18.1345 4.44338 18.135 4.57365L18.1756 12.262C18.1774 12.5675 18.4283 12.8157 18.735 12.8157C18.7806 12.8157 18.8263 12.8102 18.8705 12.7992L25.9601 11.0481C26.0873 11.0164 26.2109 11.1123 26.2114 11.2426L26.2326 15.1342C26.2331 15.2274 26.1694 15.3086 26.0786 15.331L18.9245 17.0968L18.8046 17.1298C18.4707 17.2211 18.2411 17.5248 18.2447 17.8693L18.2456 17.9689L18.2853 25.2975C18.2858 25.3906 18.2221 25.4718 18.1313 25.4943L14.4078 26.4132C14.2432 26.454 14.0832 26.3302 14.0822 26.1614L14.0449 18.9699L14.0467 18.969Z" fill="#32964A"/>
</svg>
